<?xml version="1.0" encoding="utf-8"?>
<!-- Generator: Adobe Illustrator 21.0.0, SVG Export Plug-In . SVG Version: 6.00 Build 0)  -->
<svg version="1.1" id="图层_1" xmlns="http://www.w3.org/2000/svg" xmlns:xlink="http://www.w3.org/1999/xlink" x="0px" y="0px"
	 viewBox="0 0 12 8" style="enable-background:new 0 0 12 8;" xml:space="preserve">
<style type="text/css">
	.st0{fill:#827E7E;}
</style>
<path id="勾选" class="st0" d="M4.2,7.8L0.2,3.7c-0.2-0.2-0.2-0.6,0-0.8l0,0c0.2-0.2,0.6-0.2,0.8,0c0,0,0,0,0,0L5,7
	c0.2,0.2,0.2,0.6,0,0.8l0,0C4.8,8,4.4,8.1,4.2,7.8C4.2,7.8,4.2,7.8,4.2,7.8z M11.8,1L5.1,7.8C4.8,8,4.5,8,4.3,7.8c0,0,0,0,0,0l0,0
	C4,7.6,4,7.2,4.3,7L11,0.1c0.2-0.2,0.6-0.2,0.8,0c0,0,0,0,0,0l0,0C12,0.4,12,0.7,11.8,1C11.8,1,11.8,1,11.8,1L11.8,1z"/>
</svg>
