<?xml version="1.0" encoding="utf-8"?>
<!-- Generator: Adobe Illustrator 21.0.0, SVG Export Plug-In . SVG Version: 6.00 Build 0)  -->
<svg version="1.1" id="图层_1" xmlns="http://www.w3.org/2000/svg" xmlns:xlink="http://www.w3.org/1999/xlink" x="0px" y="0px"
	 viewBox="0 0 11 7" style="enable-background:new 0 0 11 7;" xml:space="preserve">
<style type="text/css">
	.st0{fill:#999999;}
</style>
<path class="st0" d="M10.5,0.7c-0.3-0.3-0.7-0.3-1,0c0,0,0,0,0,0l-4,4.1l-4-4.1c0,0,0,0,0,0c-0.3-0.3-0.7-0.2-1,0
	c-0.3,0.3-0.3,0.7,0,1L5,6.3c0,0,0,0,0,0c0.1,0.1,0.3,0.2,0.5,0.2c0,0,0,0,0,0c0,0,0,0,0.1,0c0.2,0,0.3-0.1,0.4-0.2c0,0,0,0,0,0
	l4.5-4.6C10.7,1.4,10.7,1,10.5,0.7z"/>
</svg>
