<svg xmlns="http://www.w3.org/2000/svg" width="16" height="15.875" viewBox="0 0 16 15.875">
  <defs>
    <style>
      .cls-1 {
        fill: #516e82;
        fill-rule: evenodd;
      }
    </style>
  </defs>
  <path id="编辑" class="cls-1" d="M1771.9,263.98h-10.62a2.452,2.452,0,0,1-2.42-2.417V250.905a2.482,2.482,0,0,1,2.42-2.475h7.56a0.754,0.754,0,0,1,0,1.508h-7.56a0.968,0.968,0,0,0-.91.967v10.658a0.951,0.951,0,0,0,.91.909h10.62a0.943,0.943,0,0,0,.91-0.909v-7.846a0.76,0.76,0,0,1,1.52,0v7.846A2.461,2.461,0,0,1,1771.9,263.98Zm-1.6-3.965h-7.42a0.756,0.756,0,0,1-.75-0.754h0a0.756,0.756,0,0,1,.75-0.754h7.42a0.758,0.758,0,0,1,.76.754h0A0.758,0.758,0,0,1,1770.3,260.015Zm-3.57-3.706h-3.84a0.758,0.758,0,0,1-.76-0.754h0a0.758,0.758,0,0,1,.76-0.754h3.84a0.758,0.758,0,0,1,.76.754h0A0.758,0.758,0,0,1,1766.73,256.309Zm7.81-6.957-4.12,4.1a0.773,0.773,0,0,1-1.08,0h0a0.763,0.763,0,0,1,0-1.067l4.13-4.1a0.761,0.761,0,0,1,1.07,0h0A0.745,0.745,0,0,1,1774.54,249.352Z" transform="translate(-1758.81 -248.094)"/>
</svg>
