<?xml version="1.0" encoding="utf-8"?>
<!-- Generator: Adobe Illustrator 21.0.0, SVG Export Plug-In . SVG Version: 6.00 Build 0)  -->
<svg version="1.1" id="图层_1" xmlns="http://www.w3.org/2000/svg" xmlns:xlink="http://www.w3.org/1999/xlink" x="0px" y="0px"
	 viewBox="0 0 20 20" style="enable-background:new 0 0 20 20;" xml:space="preserve">
<style type="text/css">
	.st0{fill:#fff;}
</style>
<g>
	<path class="st0" d="M16.2,6.5h-0.9V5.3C15.3,2.3,12.9,0,10,0C7.1,0,4.7,2.3,4.7,5.3v1.2H3.8C2.3,6.5,1,7.7,1,9.2v8
		C1,18.8,2.3,20,3.8,20h12.4c1.5,0,2.8-1.2,2.8-2.8v-8C19,7.7,17.7,6.5,16.2,6.5z M6.2,5.3c0-2.1,1.7-3.8,3.8-3.8
		c2.1,0,3.8,1.7,3.8,3.8v1.2H6.2V5.3z M17.5,17.2c0,0.7-0.6,1.3-1.3,1.3H3.8c0,0,0,0,0,0c-0.7,0-1.3-0.6-1.3-1.3v-8c0,0,0,0,0,0
		C2.5,8.5,3.1,8,3.8,8h12.4c0.7,0,1.3,0.6,1.3,1.3V17.2z"/>
	<path class="st0" d="M10,9.8c-1.1,0-2,0.9-2,2c0,0.7,0.4,1.4,1,1.7v2.2c0,0.5,0.4,1,1,1c0.5,0,1-0.4,1-1v-2.2c0.6-0.3,1-1,1-1.7
		C12,10.7,11.1,9.8,10,9.8z"/>
</g>
</svg>
